<svg width="182" height="140" viewBox="0 0 182 140" fill="none" xmlns="http://www.w3.org/2000/svg">
<path d="M144.877 71.001C143.276 71.001 141.716 71.1826 140.191 71.4727L132.473 44.9042H134.823C135.947 44.9042 137.004 44.3306 137.68 43.3518C138.354 42.3751 138.568 41.1084 138.254 39.9369L131.027 12.8059C130.583 11.1449 129.186 10 127.594 10H121.321C119.348 10 117.747 11.7407 117.747 13.8866C117.747 16.0326 119.348 17.7732 121.321 17.7732H124.908L130.066 37.131H127.594C126.453 37.131 125.382 37.7223 124.71 38.7211C124.038 39.7199 123.84 41.0087 124.185 42.1891L126.307 49.4951L73.6751 65.2298L72.2333 60.2691L80.9838 55.6716C82.7616 54.7392 83.5049 52.4139 82.6476 50.4828C81.7882 48.5494 79.652 47.7389 77.8742 48.6735L54.2231 61.0973C52.4453 62.0297 51.702 64.355 52.5593 66.2861C53.1764 67.6747 54.4532 68.483 55.781 68.483C56.3023 68.483 56.8318 68.3568 57.3327 68.0954L65.731 63.684L67.1687 68.6336L55.6058 78.9625C50.7571 74.0372 44.269 70.9988 37.1252 70.9988C22.1677 70.9988 10 84.231 10 100.497C10 116.763 22.1697 129.998 37.1252 129.998C51.3823 129.998 63.0816 117.968 64.1487 102.756L69.7549 102.417C71.3617 106.505 75.0924 109.38 79.4321 109.38C85.2339 109.38 89.9502 104.249 89.9502 97.9393C89.9502 96.6083 89.6997 95.3504 89.3148 94.1612L129.015 58.8163L133.375 73.8202C124.158 78.5373 117.747 88.7067 117.747 100.499C117.747 116.766 129.917 130 144.873 130C159.832 130 172 116.766 172 100.499C172 84.2332 159.836 71.001 144.877 71.001ZM73.0621 88.9016C71.3393 90.3433 70.0563 92.3386 69.4128 94.6551L63.7699 94.9961C63.1366 91.373 61.8862 87.9936 60.1532 84.9684L69.4963 76.6216L73.0621 88.9016ZM54.5795 89.9424C55.4531 91.6454 56.1109 93.4902 56.5406 95.4324L47.845 95.9595L54.5795 89.9424ZM37.1313 122.227C26.1163 122.227 17.1519 112.48 17.1519 100.499C17.1519 88.5184 26.1143 78.772 37.1313 78.772C42.0514 78.772 46.5519 80.7231 50.0382 83.9409L34.8648 97.4964C33.6694 98.5616 33.2418 100.344 33.8038 101.91C34.3414 103.409 35.6672 104.386 37.1334 104.386C37.1986 104.386 37.2658 104.384 37.333 104.382L56.9438 103.195C55.7138 113.904 47.3074 122.227 37.1313 122.227ZM84.794 88.1464C83.34 87.2008 81.6701 86.6272 79.874 86.5452L75.8357 72.6486L115.528 60.7806L84.794 88.1464ZM144.877 122.227C133.862 122.227 124.897 112.48 124.897 100.499C124.897 92.1814 129.223 84.9507 135.55 81.3011L141.468 101.673C141.948 103.33 143.358 104.39 144.875 104.39C145.231 104.39 145.596 104.333 145.952 104.209C147.834 103.562 148.878 101.379 148.284 99.3323L142.366 78.9647C143.191 78.8517 144.024 78.7742 144.875 78.7742C155.892 78.7742 164.856 88.5206 164.856 100.502C164.856 112.483 155.894 122.227 144.877 122.227Z" stroke="#000000" stroke-width="2" stroke-linecap="round" stroke-linejoin="round"/></svg>
