<svg width="182" height="140" viewBox="0 0 182 140" fill="none" xmlns="http://www.w3.org/2000/svg">
<path d="M147.374 57.7723C140.121 57.7723 133.527 59.8869 128.253 63.2097L117.703 51.1266L125.286 25.1481C128.253 25.7523 130.231 26.0543 133.527 25.7522C138.473 24.846 140.451 19.7107 132.868 20.0128C125.945 20.3149 118.692 20.617 111.44 20.617C101.549 20.617 106.824 23.9398 111.11 23.9398C115.396 23.9398 118.363 24.2419 121 24.5439L113.747 49.3142L55.0659 42.6685L57.3736 37.2311C57.7033 36.627 57.3736 36.0228 57.044 35.4187C56.7143 34.8145 56.0549 34.5125 55.0659 34.5125H50.1209L50.4505 33.0021H54.0769C55.3956 33.0021 56.3846 32.0958 56.3846 30.8875C56.3846 29.6792 55.3956 28.773 54.0769 28.773H43.1978C41.8791 28.773 40.8901 29.6792 40.8901 30.8875C40.8901 32.0958 41.8791 33.0021 43.1978 33.0021H45.8352L45.5055 34.5125H43.8571C43.5275 34.5125 43.5275 34.5125 43.1978 34.5125C40.8901 34.5125 38.9121 34.5125 36.9341 34.5125C25.0659 34.8145 15.8352 34.8145 11.5495 27.5647C10.8901 26.6585 9.57143 26.0543 8.58242 26.6585C7.59341 27.2626 6.93407 28.4709 7.59341 29.3772C12.5385 37.2311 21.4396 38.4394 31.3297 38.4394C32.6484 38.4394 33.967 38.4394 35.6154 38.4394C35.9451 39.6478 36.9341 40.554 37.5934 41.4602L37.9231 41.7623C36.9341 42.0644 34.956 42.0644 31.6593 42.0644C30.3407 42.0644 29.3516 42.9706 29.3516 44.1789C29.3516 45.3872 30.3407 46.2934 31.6593 46.2934C38.9121 46.2934 41.8791 45.6893 42.8681 43.5747C43.8571 41.4602 42.2088 39.9498 40.8901 38.4394C41.5494 38.4394 42.5385 38.4394 44.1868 38.4394H51.7692L49.7912 43.2727C49.7912 43.5747 49.4615 43.5747 49.4615 43.8768L46.1648 52.637L43.8571 58.6786C40.8901 58.0744 37.9231 57.4702 34.956 57.4702C16.1648 57.4702 1 71.3657 1 88.5841C1 100.365 8.25275 110.636 18.8022 116.073L18.4725 116.375L24.0769 118.792L24.4066 118.188C27.7033 119.094 31.3297 119.698 34.956 119.698C53.7472 119.698 68.9121 105.802 68.9121 88.5841C68.9121 75.5948 60.3407 64.418 48.1429 59.8869L49.4615 56.2619L102.209 92.209C102.209 92.209 102.538 92.209 102.538 92.5111H102.868H103.198L113.088 92.209C115.066 107.615 129.571 120 147.044 120C165.835 120 181 106.105 181 88.8862C181 71.6678 166.165 57.7723 147.374 57.7723ZM41.8791 64.418L34.2967 84.9592L21.1099 67.1367C25.3956 64.7201 30.011 63.5118 35.2857 63.5118C37.5934 63.5118 39.9011 63.8138 41.8791 64.418ZM7.59341 89.1882C7.59341 81.9384 10.8901 75.5948 16.1648 71.0637L31.6593 91.6048L21.4396 111.542C13.1978 106.709 7.59341 98.5526 7.59341 89.1882ZM35.2857 114.563C32.6483 114.563 30.011 114.261 27.3736 113.354L37.2637 93.7194L62.6483 91.6048C61.3297 104.594 49.4615 114.563 35.2857 114.563ZM62.6483 85.8654L37.9231 87.9799L46.1648 65.9284C55.0659 69.2512 61.3297 76.8031 62.6483 85.8654ZM124.626 65.9284C117.703 71.6678 113.418 79.5218 113.418 88.5841L106.824 88.8862L116.385 56.2619L124.626 65.9284ZM52.4286 49.3142V49.0121L53.4176 46.8976L112.429 53.5433L102.209 87.6779L51.1099 52.637L52.4286 49.3142Z" stroke="#000000" stroke-width="2" stroke-linecap="round" stroke-linejoin="round"/></svg>
